<svg width="1341" height="1018" xmlns="http://www.w3.org/2000/svg" xmlns:xlink="http://www.w3.org/1999/xlink" xml:space="preserve" overflow="hidden"><defs><clipPath id="clip0"><rect x="98" y="1944" width="1341" height="1018"/></clipPath></defs><g clip-path="url(#clip0)" transform="translate(-98 -1944)"><rect x="99" y="1945" width="1338" height="1015" fill="#FFFFFF"/><g><path d="M229.5 2663.59 1386.5 2663.59M229.5 2599.59 1386.5 2599.59M229.5 2534.58 1386.5 2534.58M229.5 2469.58 1386.5 2469.58M229.5 2405.58 1386.5 2405.58M229.5 2340.58 1386.5 2340.58M229.5 2276.57 1386.5 2276.57M229.5 2211.57 1386.5 2211.57M229.5 2147.5 1386.5 2147.5" stroke="#D9D9D9" stroke-width="3.4375" stroke-linejoin="round" stroke-miterlimit="10" fill="none"/></g><g><path d="M268.009 2650.09 422.014 2650.09 422.014 2728 268.009 2728ZM653.021 2395.08 808.026 2395.08 808.026 2728 653.021 2728ZM1039.03 2193.07 1193.04 2193.07 1193.04 2728 1039.03 2728Z" fill="#4EA72E"/></g><g><path d="M422.014 2641.09 576.019 2641.09 576.019 2728 422.014 2728ZM808.026 2431.08 962.032 2431.08 962.032 2728 808.026 2728ZM1193.04 2251.07 1348.04 2251.07 1348.04 2728 1193.04 2728Z" fill="#E97132"/></g><g><path d="M229.5 2728.5 1386.5 2728.5" stroke="#D9D9D9" stroke-width="3.4375" stroke-linejoin="round" stroke-miterlimit="10" fill="none" fill-rule="evenodd"/></g><g><text fill="#595959" font-family="Aptos Narrow,Aptos Narrow_MSFontService,sans-serif" font-weight="400" font-stretch="semi-condensed" font-size="41" transform="matrix(1 0 0 1 170.163 2740)">0</text></g><g><text fill="#595959" font-family="Aptos Narrow,Aptos Narrow_MSFontService,sans-serif" font-weight="400" font-stretch="semi-condensed" font-size="41" transform="matrix(1 0 0 1 128.363 2675)">100</text></g><g><text fill="#595959" font-family="Aptos Narrow,Aptos Narrow_MSFontService,sans-serif" font-weight="400" font-stretch="semi-condensed" font-size="41" transform="matrix(1 0 0 1 128.363 2611)">200</text></g><g><text fill="#595959" font-family="Aptos Narrow,Aptos Narrow_MSFontService,sans-serif" font-weight="400" font-stretch="semi-condensed" font-size="41" transform="matrix(1 0 0 1 128.363 2546)">300</text></g><g><text fill="#595959" font-family="Aptos Narrow,Aptos Narrow_MSFontService,sans-serif" font-weight="400" font-stretch="semi-condensed" font-size="41" transform="matrix(1 0 0 1 128.363 2482)">400</text></g><g><text fill="#595959" font-family="Aptos Narrow,Aptos Narrow_MSFontService,sans-serif" font-weight="400" font-stretch="semi-condensed" font-size="41" transform="matrix(1 0 0 1 128.363 2417)">500</text></g><g><text fill="#595959" font-family="Aptos Narrow,Aptos Narrow_MSFontService,sans-serif" font-weight="400" font-stretch="semi-condensed" font-size="41" transform="matrix(1 0 0 1 128.363 2353)">600</text></g><g><text fill="#595959" font-family="Aptos Narrow,Aptos Narrow_MSFontService,sans-serif" font-weight="400" font-stretch="semi-condensed" font-size="41" transform="matrix(1 0 0 1 128.363 2288)">700</text></g><g><text fill="#595959" font-family="Aptos Narrow,Aptos Narrow_MSFontService,sans-serif" font-weight="400" font-stretch="semi-condensed" font-size="41" transform="matrix(1 0 0 1 128.363 2224)">800</text></g><g><text fill="#595959" font-family="Aptos Narrow,Aptos Narrow_MSFontService,sans-serif" font-weight="400" font-stretch="semi-condensed" font-size="41" transform="matrix(1 0 0 1 128.363 2159)">900</text></g><g><text fill="#595959" font-family="Aptos Narrow,Aptos Narrow_MSFontService,sans-serif" font-weight="400" font-stretch="semi-condensed" font-size="41" transform="matrix(1 0 0 1 330.935 2793)">BW (MiB/s)</text></g><g><text fill="#595959" font-family="Malgun Gothic,Malgun Gothic_MSFontService,sans-serif" font-weight="400" font-size="41" transform="matrix(1 0 0 1 685.202 2807)">평균</text></g><g><text fill="#595959" font-family="Malgun Gothic,Malgun Gothic_MSFontService,sans-serif" font-weight="400" font-size="41" transform="matrix(1 0 0 1 775.425 2807)">지연</text></g><g><text fill="#595959" font-family="Aptos Narrow,Aptos Narrow_MSFontService,sans-serif" font-weight="400" font-stretch="semi-condensed" font-size="41" transform="matrix(1 0 0 1 865.647 2807)">(µs)</text></g><g><text fill="#595959" font-family="Malgun Gothic,Malgun Gothic_MSFontService,sans-serif" font-weight="400" font-size="41" transform="matrix(1 0 0 1 1065.41 2807)">실행</text></g><g><text fill="#595959" font-family="Malgun Gothic,Malgun Gothic_MSFontService,sans-serif" font-weight="400" font-size="41" transform="matrix(1 0 0 1 1155.63 2807)">시간</text></g><g><text fill="#595959" font-family="Aptos Narrow,Aptos Narrow_MSFontService,sans-serif" font-weight="400" font-stretch="semi-condensed" font-size="41" transform="matrix(1 0 0 1 1245.85 2807)">(ms)</text></g><g><text fill="#595959" font-family="Malgun Gothic,Malgun Gothic_MSFontService,sans-serif" font-weight="400" font-size="64" transform="matrix(1 0 0 1 633.343 2062)">랜덤</text></g><g><text fill="#595959" font-family="Malgun Gothic,Malgun Gothic_MSFontService,sans-serif" font-weight="400" font-size="64" transform="matrix(1 0 0 1 773.684 2062)">쓰기</text></g><g><rect x="638" y="2882" width="23.0001" height="23" fill="#4EA72E"/></g><g><text fill="#595959" font-family="Aptos Narrow,Aptos Narrow_MSFontService,sans-serif" font-weight="400" font-stretch="semi-condensed" font-size="41" transform="matrix(1 0 0 1 670.335 2905)">SFUSE</text></g><g><rect x="811" y="2882" width="22" height="23" fill="#E97132"/></g><g><text fill="#595959" font-family="Aptos Narrow,Aptos Narrow_MSFontService,sans-serif" font-weight="400" font-stretch="semi-condensed" font-size="41" transform="matrix(1 0 0 1 842.916 2905)">Ext4</text></g><rect x="99.4998" y="1945.5" width="1338" height="1015" stroke="#000000" stroke-width="3.4375" stroke-linejoin="round" stroke-miterlimit="10" fill="none"/></g></svg>