<svg width="1341" height="1020" xmlns="http://www.w3.org/2000/svg" xmlns:xlink="http://www.w3.org/1999/xlink" xml:space="preserve" overflow="hidden"><defs><clipPath id="clip0"><rect x="1492" y="1944" width="1341" height="1020"/></clipPath></defs><g clip-path="url(#clip0)" transform="translate(-1492 -1944)"><rect x="1493" y="1945" width="1338" height="1017" fill="#FFFFFF"/><g><path d="M1623.5 2633.59 2781.5 2633.59M1623.5 2536.58 2781.5 2536.58M1623.5 2438.58 2781.5 2438.58M1623.5 2341.58 2781.5 2341.58M1623.5 2244.57 2781.5 2244.57M1623.5 2147.5 2781.5 2147.5" stroke="#D9D9D9" stroke-width="3.4375" stroke-linejoin="round" stroke-miterlimit="10" fill="none"/></g><g><path d="M1662.05 2546.08 1816.06 2546.08 1816.06 2731 1662.05 2731ZM2048.07 2413.08 2202.07 2413.08 2202.07 2731 2048.07 2731ZM2434.08 2220.07 2588.08 2220.07 2588.08 2731 2434.08 2731Z" fill="#4EA72E"/></g><g><path d="M1816.06 2480.08 1971.06 2480.08 1971.06 2731 1816.06 2731ZM2202.07 2496.08 2356.08 2496.08 2356.08 2731 2202.07 2731ZM2588.08 2354.08 2742.09 2354.08 2742.09 2731 2588.08 2731Z" fill="#E97132"/></g><g><path d="M1623.5 2730.5 2781.5 2730.5" stroke="#D9D9D9" stroke-width="3.4375" stroke-linejoin="round" stroke-miterlimit="10" fill="none" fill-rule="evenodd"/></g><g><text fill="#595959" font-family="Aptos Narrow,Aptos Narrow_MSFontService,sans-serif" font-weight="400" font-stretch="semi-condensed" font-size="41" transform="matrix(1 0 0 1 1564.33 2742)">0</text></g><g><text fill="#595959" font-family="Aptos Narrow,Aptos Narrow_MSFontService,sans-serif" font-weight="400" font-stretch="semi-condensed" font-size="41" transform="matrix(1 0 0 1 1522.53 2645)">100</text></g><g><text fill="#595959" font-family="Aptos Narrow,Aptos Narrow_MSFontService,sans-serif" font-weight="400" font-stretch="semi-condensed" font-size="41" transform="matrix(1 0 0 1 1522.53 2548)">200</text></g><g><text fill="#595959" font-family="Aptos Narrow,Aptos Narrow_MSFontService,sans-serif" font-weight="400" font-stretch="semi-condensed" font-size="41" transform="matrix(1 0 0 1 1522.53 2450)">300</text></g><g><text fill="#595959" font-family="Aptos Narrow,Aptos Narrow_MSFontService,sans-serif" font-weight="400" font-stretch="semi-condensed" font-size="41" transform="matrix(1 0 0 1 1522.53 2353)">400</text></g><g><text fill="#595959" font-family="Aptos Narrow,Aptos Narrow_MSFontService,sans-serif" font-weight="400" font-stretch="semi-condensed" font-size="41" transform="matrix(1 0 0 1 1522.53 2256)">500</text></g><g><text fill="#595959" font-family="Aptos Narrow,Aptos Narrow_MSFontService,sans-serif" font-weight="400" font-stretch="semi-condensed" font-size="41" transform="matrix(1 0 0 1 1522.53 2159)">600</text></g><g><text fill="#595959" font-family="Aptos Narrow,Aptos Narrow_MSFontService,sans-serif" font-weight="400" font-stretch="semi-condensed" font-size="41" transform="matrix(1 0 0 1 1725.19 2795)">BW (MiB/s)</text></g><g><text fill="#595959" font-family="Malgun Gothic,Malgun Gothic_MSFontService,sans-serif" font-weight="400" font-size="41" transform="matrix(1 0 0 1 2079.63 2809)">평균</text></g><g><text fill="#595959" font-family="Malgun Gothic,Malgun Gothic_MSFontService,sans-serif" font-weight="400" font-size="41" transform="matrix(1 0 0 1 2169.85 2809)">지연</text></g><g><text fill="#595959" font-family="Aptos Narrow,Aptos Narrow_MSFontService,sans-serif" font-weight="400" font-stretch="semi-condensed" font-size="41" transform="matrix(1 0 0 1 2260.07 2809)">(µs)</text></g><g><text fill="#595959" font-family="Malgun Gothic,Malgun Gothic_MSFontService,sans-serif" font-weight="400" font-size="41" transform="matrix(1 0 0 1 2460 2809)">실행</text></g><g><text fill="#595959" font-family="Malgun Gothic,Malgun Gothic_MSFontService,sans-serif" font-weight="400" font-size="41" transform="matrix(1 0 0 1 2550.23 2809)">시간</text></g><g><text fill="#595959" font-family="Aptos Narrow,Aptos Narrow_MSFontService,sans-serif" font-weight="400" font-stretch="semi-condensed" font-size="41" transform="matrix(1 0 0 1 2640.45 2809)">(ms)</text></g><g><text fill="#595959" font-family="Malgun Gothic,Malgun Gothic_MSFontService,sans-serif" font-weight="400" font-size="64" transform="matrix(1 0 0 1 2027.77 2062)">랜덤</text></g><g><text fill="#595959" font-family="Malgun Gothic,Malgun Gothic_MSFontService,sans-serif" font-weight="400" font-size="64" transform="matrix(1 0 0 1 2168.11 2062)">읽기</text></g><g><rect x="2032" y="2885" width="23.0001" height="23" fill="#4EA72E"/></g><g><text fill="#595959" font-family="Aptos Narrow,Aptos Narrow_MSFontService,sans-serif" font-weight="400" font-stretch="semi-condensed" font-size="41" transform="matrix(1 0 0 1 2064.76 2908)">SFUSE</text></g><g><rect x="2205" y="2885" width="22.9998" height="23" fill="#E97132"/></g><g><text fill="#595959" font-family="Aptos Narrow,Aptos Narrow_MSFontService,sans-serif" font-weight="400" font-stretch="semi-condensed" font-size="41" transform="matrix(1 0 0 1 2237.34 2908)">Ext4</text></g><rect x="1493.5" y="1945.5" width="1338" height="1017" stroke="#000000" stroke-width="3.4375" stroke-linejoin="round" stroke-miterlimit="10" fill="none"/></g></svg>