<svg width="1300" height="1017" xmlns="http://www.w3.org/2000/svg" xmlns:xlink="http://www.w3.org/1999/xlink" xml:space="preserve" overflow="hidden"><defs><clipPath id="clip0"><rect x="1501" y="869" width="1300" height="1017"/></clipPath></defs><g clip-path="url(#clip0)" transform="translate(-1501 -869)"><rect x="1502" y="870" width="1297" height="1014" fill="#FFFFFF"/><g><path d="M1653.5 1536.55 2748.5 1536.55M1653.5 1420.55 2748.5 1420.55M1653.5 1304.54 2748.5 1304.54M1653.5 1188.54 2748.5 1188.54M1653.5 1073.5 2748.5 1073.5" stroke="#D9D9D9" stroke-width="3.4375" stroke-linejoin="round" stroke-miterlimit="10" fill="none"/></g><g><path d="M1690.06 1550.05 1836.06 1550.05 1836.06 1652 1690.06 1652ZM2055.07 1131.04 2201.07 1131.04 2201.07 1652 2055.07 1652ZM2420.08 1599.05 2566.08 1599.05 2566.08 1652 2420.08 1652Z" fill="#4EA72E"/></g><g><path d="M1836.06 1543.05 1982.06 1543.05 1982.06 1652 1836.06 1652ZM2201.07 1162.04 2347.08 1162.04 2347.08 1652 2201.07 1652ZM2566.08 1603.05 2712.09 1603.05 2712.09 1652 2566.08 1652Z" fill="#E97132"/></g><g><path d="M1653.5 1652.5 2748.5 1652.5" stroke="#D9D9D9" stroke-width="3.4375" stroke-linejoin="round" stroke-miterlimit="10" fill="none" fill-rule="evenodd"/></g><g><text fill="#595959" font-family="Aptos Narrow,Aptos Narrow_MSFontService,sans-serif" font-weight="400" font-stretch="semi-condensed" font-size="41" transform="matrix(1 0 0 1 1594.68 1664)">0</text></g><g><text fill="#595959" font-family="Aptos Narrow,Aptos Narrow_MSFontService,sans-serif" font-weight="400" font-stretch="semi-condensed" font-size="41" transform="matrix(1 0 0 1 1552.88 1548)">500</text></g><g><text fill="#595959" font-family="Aptos Narrow,Aptos Narrow_MSFontService,sans-serif" font-weight="400" font-stretch="semi-condensed" font-size="41" transform="matrix(1 0 0 1 1531.98 1432)">1000</text></g><g><text fill="#595959" font-family="Aptos Narrow,Aptos Narrow_MSFontService,sans-serif" font-weight="400" font-stretch="semi-condensed" font-size="41" transform="matrix(1 0 0 1 1531.98 1316)">1500</text></g><g><text fill="#595959" font-family="Aptos Narrow,Aptos Narrow_MSFontService,sans-serif" font-weight="400" font-stretch="semi-condensed" font-size="41" transform="matrix(1 0 0 1 1531.98 1200)">2000</text></g><g><text fill="#595959" font-family="Aptos Narrow,Aptos Narrow_MSFontService,sans-serif" font-weight="400" font-stretch="semi-condensed" font-size="41" transform="matrix(1 0 0 1 1531.98 1085)">2500</text></g><g><text fill="#595959" font-family="Aptos Narrow,Aptos Narrow_MSFontService,sans-serif" font-weight="400" font-stretch="semi-condensed" font-size="41" transform="matrix(1 0 0 1 1745.12 1717)">BW (MiB/s)</text></g><g><text fill="#595959" font-family="Malgun Gothic,Malgun Gothic_MSFontService,sans-serif" font-weight="400" font-size="41" transform="matrix(1 0 0 1 2078.73 1731)">평균</text></g><g><text fill="#595959" font-family="Malgun Gothic,Malgun Gothic_MSFontService,sans-serif" font-weight="400" font-size="41" transform="matrix(1 0 0 1 2168.96 1731)">지연</text></g><g><text fill="#595959" font-family="Aptos Narrow,Aptos Narrow_MSFontService,sans-serif" font-weight="400" font-stretch="semi-condensed" font-size="41" transform="matrix(1 0 0 1 2259.18 1731)">(µs)</text></g><g><text fill="#595959" font-family="Malgun Gothic,Malgun Gothic_MSFontService,sans-serif" font-weight="400" font-size="41" transform="matrix(1 0 0 1 2438.29 1731)">실행</text></g><g><text fill="#595959" font-family="Malgun Gothic,Malgun Gothic_MSFontService,sans-serif" font-weight="400" font-size="41" transform="matrix(1 0 0 1 2528.51 1731)">시간</text></g><g><text fill="#595959" font-family="Aptos Narrow,Aptos Narrow_MSFontService,sans-serif" font-weight="400" font-stretch="semi-condensed" font-size="41" transform="matrix(1 0 0 1 2618.73 1731)">(ms)</text></g><g><text fill="#595959" font-family="Malgun Gothic,Malgun Gothic_MSFontService,sans-serif" font-weight="400" font-size="64" transform="matrix(1 0 0 1 2016.43 988)">순차</text></g><g><text fill="#595959" font-family="Malgun Gothic,Malgun Gothic_MSFontService,sans-serif" font-weight="400" font-size="64" transform="matrix(1 0 0 1 2156.77 988)">읽기</text></g><g><rect x="2021" y="1806" width="23" height="23" fill="#4EA72E"/></g><g><text fill="#595959" font-family="Aptos Narrow,Aptos Narrow_MSFontService,sans-serif" font-weight="400" font-stretch="semi-condensed" font-size="41" transform="matrix(1 0 0 1 2053.42 1829)">SFUSE</text></g><g><rect x="2194" y="1806" width="22" height="23" fill="#E97132"/></g><g><text fill="#595959" font-family="Aptos Narrow,Aptos Narrow_MSFontService,sans-serif" font-weight="400" font-stretch="semi-condensed" font-size="41" transform="matrix(1 0 0 1 2226 1829)">Ext4</text></g><rect x="1502.5" y="870.5" width="1297" height="1014" stroke="#000000" stroke-width="3.4375" stroke-linejoin="round" stroke-miterlimit="10" fill="none"/></g></svg>