<svg width="1647" height="954" xmlns="http://www.w3.org/2000/svg" xmlns:xlink="http://www.w3.org/1999/xlink" xml:space="preserve" overflow="hidden"><defs><clipPath id="clip0"><rect x="4842" y="864" width="1647" height="954"/></clipPath></defs><g clip-path="url(#clip0)" transform="translate(-4842 -864)"><rect x="4843" y="865" width="1644" height="951" fill="#FFFFFF"/><g><path d="M4994.5 1509.55 6436.5 1509.55M4994.5 1436.55 6436.5 1436.55M4994.5 1362.54 6436.5 1362.54M4994.5 1288.54 6436.5 1288.54M4994.5 1214.54 6436.5 1214.54M4994.5 1141.54 6436.5 1141.54M4994.5 1067.5 6436.5 1067.5" stroke="#D9D9D9" stroke-width="3.4375" stroke-linejoin="round" stroke-miterlimit="10" fill="none"/></g><g><path d="M5031.17 1129.04 5175.17 1129.04 5175.17 1584 5031.17 1584ZM5391.18 1252.04 5535.18 1252.04 5535.18 1584 5391.18 1584ZM5752.19 1508.05 5896.19 1508.05 5896.19 1584 5752.19 1584ZM6112.2 1536.05 6256.21 1536.05 6256.21 1584 6112.2 1584Z" fill="#4EA72E"/></g><g><path d="M5175.17 1242.04 5319.17 1242.04 5319.17 1584 5175.17 1584ZM5535.18 1272.04 5680.19 1272.04 5680.19 1584 5535.18 1584ZM5896.19 1516.05 6040.2 1516.05 6040.2 1584 5896.19 1584ZM6256.21 1548.05 6401.21 1548.05 6401.21 1584 6256.21 1584Z" fill="#E97132"/></g><g><path d="M4994.5 1583.5 6436.5 1583.5" stroke="#D9D9D9" stroke-width="3.4375" stroke-linejoin="round" stroke-miterlimit="10" fill="none" fill-rule="evenodd"/></g><g><text fill="#595959" font-family="Aptos Narrow,Aptos Narrow_MSFontService,sans-serif" font-weight="400" font-stretch="semi-condensed" font-size="41" transform="matrix(1 0 0 1 4935.67 1595)">0</text></g><g><text fill="#595959" font-family="Aptos Narrow,Aptos Narrow_MSFontService,sans-serif" font-weight="400" font-stretch="semi-condensed" font-size="41" transform="matrix(1 0 0 1 4893.87 1522)">500</text></g><g><text fill="#595959" font-family="Aptos Narrow,Aptos Narrow_MSFontService,sans-serif" font-weight="400" font-stretch="semi-condensed" font-size="41" transform="matrix(1 0 0 1 4872.97 1448)">1000</text></g><g><text fill="#595959" font-family="Aptos Narrow,Aptos Narrow_MSFontService,sans-serif" font-weight="400" font-stretch="semi-condensed" font-size="41" transform="matrix(1 0 0 1 4872.97 1374)">1500</text></g><g><text fill="#595959" font-family="Aptos Narrow,Aptos Narrow_MSFontService,sans-serif" font-weight="400" font-stretch="semi-condensed" font-size="41" transform="matrix(1 0 0 1 4872.97 1300)">2000</text></g><g><text fill="#595959" font-family="Aptos Narrow,Aptos Narrow_MSFontService,sans-serif" font-weight="400" font-stretch="semi-condensed" font-size="41" transform="matrix(1 0 0 1 4872.97 1227)">2500</text></g><g><text fill="#595959" font-family="Aptos Narrow,Aptos Narrow_MSFontService,sans-serif" font-weight="400" font-stretch="semi-condensed" font-size="41" transform="matrix(1 0 0 1 4872.97 1153)">3000</text></g><g><text fill="#595959" font-family="Aptos Narrow,Aptos Narrow_MSFontService,sans-serif" font-weight="400" font-stretch="semi-condensed" font-size="41" transform="matrix(1 0 0 1 4872.97 1079)">3500</text></g><g><text fill="#595959" font-family="Malgun Gothic,Malgun Gothic_MSFontService,sans-serif" font-weight="400" font-size="41" transform="matrix(1 0 0 1 5088.58 1663)">순차</text></g><g><text fill="#595959" font-family="Malgun Gothic,Malgun Gothic_MSFontService,sans-serif" font-weight="400" font-size="41" transform="matrix(1 0 0 1 5178.81 1663)">쓰기</text></g><g><text fill="#595959" font-family="Malgun Gothic,Malgun Gothic_MSFontService,sans-serif" font-weight="400" font-size="41" transform="matrix(1 0 0 1 5449.16 1663)">순차</text></g><g><text fill="#595959" font-family="Malgun Gothic,Malgun Gothic_MSFontService,sans-serif" font-weight="400" font-size="41" transform="matrix(1 0 0 1 5539.38 1663)">읽기</text></g><g><text fill="#595959" font-family="Malgun Gothic,Malgun Gothic_MSFontService,sans-serif" font-weight="400" font-size="41" transform="matrix(1 0 0 1 5809.73 1663)">랜덤</text></g><g><text fill="#595959" font-family="Malgun Gothic,Malgun Gothic_MSFontService,sans-serif" font-weight="400" font-size="41" transform="matrix(1 0 0 1 5899.96 1663)">쓰기</text></g><g><text fill="#595959" font-family="Malgun Gothic,Malgun Gothic_MSFontService,sans-serif" font-weight="400" font-size="41" transform="matrix(1 0 0 1 6170.31 1663)">랜덤</text></g><g><text fill="#595959" font-family="Malgun Gothic,Malgun Gothic_MSFontService,sans-serif" font-weight="400" font-size="41" transform="matrix(1 0 0 1 6260.53 1663)">읽기</text></g><g><text fill="#595959" font-family="Malgun Gothic,Malgun Gothic_MSFontService,sans-serif" font-weight="400" font-size="64" transform="matrix(1 0 0 1 5474.65 982)">평균</text></g><g><text fill="#595959" font-family="Malgun Gothic,Malgun Gothic_MSFontService,sans-serif" font-weight="400" font-size="64" transform="matrix(1 0 0 1 5614.99 982)">지연</text></g><g><text fill="#595959" font-family="Aptos Narrow,Aptos Narrow_MSFontService,sans-serif" font-weight="400" font-stretch="semi-condensed" font-size="64" transform="matrix(1 0 0 1 5755.33 982)">(µs)</text></g><g><rect x="5536" y="1738" width="22" height="23" fill="#4EA72E"/></g><g><text fill="#595959" font-family="Aptos Narrow,Aptos Narrow_MSFontService,sans-serif" font-weight="400" font-stretch="semi-condensed" font-size="41" transform="matrix(1 0 0 1 5567.93 1761)">SFUSE</text></g><g><rect x="5708" y="1738" width="23" height="23" fill="#E97132"/></g><g><text fill="#595959" font-family="Aptos Narrow,Aptos Narrow_MSFontService,sans-serif" font-weight="400" font-stretch="semi-condensed" font-size="41" transform="matrix(1 0 0 1 5740.51 1761)">Ext4</text></g><rect x="4843.5" y="865.5" width="1644" height="951" stroke="#D9D9D9" stroke-width="3.4375" stroke-linejoin="round" stroke-miterlimit="10" fill="none"/></g></svg>