<svg width="1647" height="958" xmlns="http://www.w3.org/2000/svg" xmlns:xlink="http://www.w3.org/1999/xlink" xml:space="preserve" overflow="hidden"><defs><clipPath id="clip0"><rect x="3131" y="1851" width="1647" height="958"/></clipPath></defs><g clip-path="url(#clip0)" transform="translate(-3131 -1851)"><rect x="3132" y="1852" width="1644" height="955" fill="#FFFFFF"/><g><path d="M3262.5 2517.58 4725.5 2517.58M3262.5 2459.58 4725.5 2459.58M3262.5 2401.58 4725.5 2401.58M3262.5 2343.58 4725.5 2343.58M3262.5 2285.57 4725.5 2285.57M3262.5 2228.57 4725.5 2228.57M3262.5 2170.57 4725.5 2170.57M3262.5 2112.57 4725.5 2112.57M3262.5 2054.5 4725.5 2054.5" stroke="#D9D9D9" stroke-width="3.4375" stroke-linejoin="round" stroke-miterlimit="10" fill="none"/></g><g><path d="M3299.11 2395.08 3445.11 2395.08 3445.11 2576 3299.11 2576ZM3664.12 2444.08 3811.12 2444.08 3811.12 2576 3664.12 2576ZM4030.13 2095.07 4177.14 2095.07 4177.14 2576 4030.13 2576ZM4396.14 2271.07 4542.15 2271.07 4542.15 2576 4396.14 2576Z" fill="#4EA72E"/></g><g><path d="M3445.11 2441.08 3591.12 2441.08 3591.12 2576 3445.11 2576ZM3811.12 2452.08 3957.13 2452.08 3957.13 2576 3811.12 2576ZM4177.14 2147.07 4323.14 2147.07 4323.14 2576 4177.14 2576ZM4542.15 2351.08 4689.15 2351.08 4689.15 2576 4542.15 2576Z" fill="#E97132"/></g><g><path d="M3262.5 2575.5 4725.5 2575.5" stroke="#D9D9D9" stroke-width="3.4375" stroke-linejoin="round" stroke-miterlimit="10" fill="none" fill-rule="evenodd"/></g><g><text fill="#595959" font-family="Aptos Narrow,Aptos Narrow_MSFontService,sans-serif" font-weight="400" font-stretch="semi-condensed" font-size="41" transform="matrix(1 0 0 1 3203.28 2587)">0</text></g><g><text fill="#595959" font-family="Aptos Narrow,Aptos Narrow_MSFontService,sans-serif" font-weight="400" font-stretch="semi-condensed" font-size="41" transform="matrix(1 0 0 1 3161.48 2529)">100</text></g><g><text fill="#595959" font-family="Aptos Narrow,Aptos Narrow_MSFontService,sans-serif" font-weight="400" font-stretch="semi-condensed" font-size="41" transform="matrix(1 0 0 1 3161.48 2471)">200</text></g><g><text fill="#595959" font-family="Aptos Narrow,Aptos Narrow_MSFontService,sans-serif" font-weight="400" font-stretch="semi-condensed" font-size="41" transform="matrix(1 0 0 1 3161.48 2413)">300</text></g><g><text fill="#595959" font-family="Aptos Narrow,Aptos Narrow_MSFontService,sans-serif" font-weight="400" font-stretch="semi-condensed" font-size="41" transform="matrix(1 0 0 1 3161.48 2356)">400</text></g><g><text fill="#595959" font-family="Aptos Narrow,Aptos Narrow_MSFontService,sans-serif" font-weight="400" font-stretch="semi-condensed" font-size="41" transform="matrix(1 0 0 1 3161.48 2298)">500</text></g><g><text fill="#595959" font-family="Aptos Narrow,Aptos Narrow_MSFontService,sans-serif" font-weight="400" font-stretch="semi-condensed" font-size="41" transform="matrix(1 0 0 1 3161.48 2240)">600</text></g><g><text fill="#595959" font-family="Aptos Narrow,Aptos Narrow_MSFontService,sans-serif" font-weight="400" font-stretch="semi-condensed" font-size="41" transform="matrix(1 0 0 1 3161.48 2182)">700</text></g><g><text fill="#595959" font-family="Aptos Narrow,Aptos Narrow_MSFontService,sans-serif" font-weight="400" font-stretch="semi-condensed" font-size="41" transform="matrix(1 0 0 1 3161.48 2124)">800</text></g><g><text fill="#595959" font-family="Aptos Narrow,Aptos Narrow_MSFontService,sans-serif" font-weight="400" font-stretch="semi-condensed" font-size="41" transform="matrix(1 0 0 1 3161.48 2066)">900</text></g><g><text fill="#595959" font-family="Malgun Gothic,Malgun Gothic_MSFontService,sans-serif" font-weight="400" font-size="41" transform="matrix(1 0 0 1 3358.79 2655)">순차</text></g><g><text fill="#595959" font-family="Malgun Gothic,Malgun Gothic_MSFontService,sans-serif" font-weight="400" font-size="41" transform="matrix(1 0 0 1 3449.01 2655)">쓰기</text></g><g><text fill="#595959" font-family="Malgun Gothic,Malgun Gothic_MSFontService,sans-serif" font-weight="400" font-size="41" transform="matrix(1 0 0 1 3724.56 2655)">순차</text></g><g><text fill="#595959" font-family="Malgun Gothic,Malgun Gothic_MSFontService,sans-serif" font-weight="400" font-size="41" transform="matrix(1 0 0 1 3814.79 2655)">읽기</text></g><g><text fill="#595959" font-family="Malgun Gothic,Malgun Gothic_MSFontService,sans-serif" font-weight="400" font-size="41" transform="matrix(1 0 0 1 4090.34 2655)">랜덤</text></g><g><text fill="#595959" font-family="Malgun Gothic,Malgun Gothic_MSFontService,sans-serif" font-weight="400" font-size="41" transform="matrix(1 0 0 1 4180.56 2655)">쓰기</text></g><g><text fill="#595959" font-family="Malgun Gothic,Malgun Gothic_MSFontService,sans-serif" font-weight="400" font-size="41" transform="matrix(1 0 0 1 4456.11 2655)">랜덤</text></g><g><text fill="#595959" font-family="Malgun Gothic,Malgun Gothic_MSFontService,sans-serif" font-weight="400" font-size="41" transform="matrix(1 0 0 1 4546.33 2655)">읽기</text></g><g><text fill="#595959" font-family="Malgun Gothic,Malgun Gothic_MSFontService,sans-serif" font-weight="400" font-size="64" transform="matrix(1 0 0 1 3754.49 1969)">실행</text></g><g><text fill="#595959" font-family="Malgun Gothic,Malgun Gothic_MSFontService,sans-serif" font-weight="400" font-size="64" transform="matrix(1 0 0 1 3894.84 1969)">시간</text></g><g><text fill="#595959" font-family="Aptos Narrow,Aptos Narrow_MSFontService,sans-serif" font-weight="400" font-stretch="semi-condensed" font-size="64" transform="matrix(1 0 0 1 4035.18 1969)">(ms)</text></g><g><rect x="3824" y="2730" width="23" height="23" fill="#4EA72E"/></g><g><text fill="#595959" font-family="Aptos Narrow,Aptos Narrow_MSFontService,sans-serif" font-weight="400" font-stretch="semi-condensed" font-size="41" transform="matrix(1 0 0 1 3856.39 2753)">SFUSE</text></g><g><rect x="3997" y="2730" width="22" height="23" fill="#E97132"/></g><g><text fill="#595959" font-family="Aptos Narrow,Aptos Narrow_MSFontService,sans-serif" font-weight="400" font-stretch="semi-condensed" font-size="41" transform="matrix(1 0 0 1 4028.97 2753)">Ext4</text></g><rect x="3132.5" y="1852.5" width="1644" height="955" stroke="#D9D9D9" stroke-width="3.4375" stroke-linejoin="round" stroke-miterlimit="10" fill="none"/></g></svg>